<svg xmlns="http://www.w3.org/2000/svg" viewBox="0 0 512 512" fill="none">
  <defs>
    <linearGradient id="orion-edge" x1="88" y1="96" x2="420" y2="416" gradientUnits="userSpaceOnUse">
      <stop offset="0" stop-color="#16d9ff"/>
      <stop offset="0.55" stop-color="#12a9ff"/>
      <stop offset="1" stop-color="#6b46ff"/>
    </linearGradient>
    <linearGradient id="orion-core" x1="256" y1="122" x2="256" y2="410" gradientUnits="userSpaceOnUse">
      <stop offset="0" stop-color="#12284f"/>
      <stop offset="1" stop-color="#0a1127"/>
    </linearGradient>
    <filter id="orion-glow" x="-20%" y="-20%" width="140%" height="140%">
      <feDropShadow dx="0" dy="0" stdDeviation="8" flood-color="#16d9ff" flood-opacity="0.55"/>
      <feDropShadow dx="0" dy="0" stdDeviation="16" flood-color="#6b46ff" flood-opacity="0.25"/>
    </filter>
  </defs>

  <g filter="url(#orion-glow)" stroke="url(#orion-edge)" stroke-linecap="round" stroke-linejoin="round">
    <path
      d="M256 58 315 176 446 193 350 287 381 420 256 349 131 420 162 287 66 193 197 176 256 58Z"
      fill="url(#orion-core)"
      stroke-width="16"
    />

    <g stroke-width="12">
      <path d="M111 132v46l32 31h96"/>
      <circle cx="111" cy="106" r="14"/>
      <circle cx="165" cy="153" r="11"/>

      <path d="M87 281v54l25 26"/>
      <path d="M112 361v45"/>
      <circle cx="87" cy="255" r="12"/>
      <circle cx="112" cy="432" r="14"/>

      <path d="M401 126h58l23 23v36"/>
      <path d="M392 164h74"/>
      <circle cx="413" cy="126" r="11"/>
      <circle cx="482" cy="185" r="13"/>

      <path d="M401 283v46l27 23v52"/>
      <path d="M428 352h31"/>
      <circle cx="459" cy="352" r="11"/>
      <circle cx="428" cy="404" r="12"/>

      <path d="M199 430h55l24-25h64"/>
      <circle cx="178" cy="430" r="12"/>
      <circle cx="342" cy="405" r="11"/>
    </g>

    <g stroke-width="11">
      <path d="M219 248 255 214l40 18 29 35-34 33h-44l-27-28Z"/>
      <circle cx="219" cy="248" r="13"/>
      <circle cx="255" cy="214" r="12"/>
      <circle cx="295" cy="232" r="10"/>
      <circle cx="324" cy="267" r="10"/>
      <circle cx="290" cy="300" r="11"/>
      <circle cx="246" cy="300" r="9"/>
    </g>
  </g>
</svg>
